<svg xmlns="http://www.w3.org/2000/svg" viewBox="0 0 403.86 432.39"><defs><style>.cls-1{fill:#2c2c2c;}.cls-2{fill:#fff;}</style></defs><title>bh-logo</title><g id="Layer_2" data-name="Layer 2"><g id="Layer_1-2" data-name="Layer 1"><path class="cls-1" d="M13.87,351.55C-33.45,266.15,41.32,68.4,222.4,51.11s148,132.75,130.72,171.72c-14.79,33.4-36.18,50.2-79.92,75.61S239.79,380.12,195,415.69C156.16,446.55,62.76,439.77,13.87,351.55Z"/><path class="cls-1" d="M221.28,32.08c-9.43-21.35-49.7-40-75.4-28.64s-39.06,53.66-29.64,75,43.4,27,69.1,15.69S230.7,53.43,221.28,32.08Z"/><path class="cls-1" d="M368.09,85.54c9.93-17.51,2.12-55-19-66.94s-57.25.57-67.18,18.08,3.61,44,24.69,55.91S358.16,103.06,368.09,85.54Z"/><path class="cls-2" d="M361.71,133.17C339.08,122,286.9,119.94,267,168.11s45.14,101.58,76.91,95.78S415.89,160,361.71,133.17Z"/><path class="cls-1" d="M403.86,184.51c0,8.15-10.49,14.75-23.42,14.75S357,192.66,357,184.51s10.49-23.18,23.42-23.18S403.86,176.36,403.86,184.51Z"/></g></g></svg>
