<?xml version="1.0" encoding="utf-8"?>
<!-- Generator: Adobe Illustrator 21.1.0, SVG Export Plug-In . SVG Version: 6.00 Build 0)  -->
<svg version="1.1" id="Layer_1" xmlns="http://www.w3.org/2000/svg" xmlns:xlink="http://www.w3.org/1999/xlink" x="0px" y="0px"
	 viewBox="0 0 356.4 256.2" style="enable-background:new 0 0 356.4 256.2;" xml:space="preserve">
<style type="text/css">
	.st0{fill:#2C2C2C;}
</style>
<title>bh-wordmark</title>
<g id="Layer_2">
	<g id="Layer_1-2">
		<path class="st0" d="M0,121.6V0h20.6v53.3c4.2-7.9,14.2-12.1,24.6-12.1c20.7,0,38.6,16,38.6,41.1c0,25-18,41-38.6,41
			c-10.3,0-20.4-4.4-24.6-12.3v10.6L0,121.6z M41.8,103.6c11.5,0,20.7-8.6,20.7-21.6c0-12.8-9.3-21.2-20.7-21.2
			c-10.6,0-20.9,7.8-20.9,21.2C20.9,95.1,30.7,103.5,41.8,103.6L41.8,103.6z"/>
		<path class="st0" d="M177.7,89h-60c1.3,10.4,10.1,16.9,21.8,16.9c7.9,0,16-3.4,19.7-10.1c4.9,2.7,10.6,5.7,15.7,8.4
			c-7.1,13.5-22.2,19.1-36.8,19.1c-22.4,0-40.8-16.5-40.8-41.3s18.4-40.8,40.8-40.8s40,16,40,40.8C178,84,177.9,87.2,177.7,89z
			 M158,75c-1.5-10.8-9.6-16.7-19.7-16.7c-10.8,0-19.3,6.1-20.8,16.7H158z"/>
		<path class="st0" d="M255.1,111.4c-5.1,8.1-16.7,11.6-24.4,11.6c-20.7,0-40.1-15.8-40.1-41c0-25.3,19.4-41,40.1-41
			c7.1,0,18.7,2.7,24.4,11.5v-9.7h20.6v78.7h-20.6V111.4z M233.5,103.4c11.1,0,21.6-7.8,21.6-21.2c0-13.7-10.8-21.2-21.6-21.2
			c-11.3,0-21.8,8.4-21.8,21.2C211.8,94.8,222.2,103.3,233.5,103.4z"/>
		<path class="st0" d="M319.5,121.6h-20.6V42.8h20.6v18.5c4-14.3,13.3-20.2,22.2-20.2c4.5-0.1,9,0.9,13,2.9l-3.5,18.5
			c-3.8-1.6-7.9-2.3-12-2.2c-14,0-19.7,12.5-19.7,33.4L319.5,121.6z"/>
		<path class="st0" d="M20.6,254.6H0V133h20.6v55c3.7-9.6,16.7-13.8,24.5-13.8c20.4,0,31.7,13.5,31.7,36.6v43.8H56.1v-42.9
			c0-11.3-8.3-17.5-16.7-17.5c-8.6,0-18.9,4.7-18.9,18.4L20.6,254.6z"/>
		<path class="st0" d="M158.6,244.4c-5.1,8.1-16.7,11.6-24.4,11.6c-20.7,0-40.1-15.9-40.1-41c0-25.3,19.4-41,40.1-41
			c7.1,0,18.7,2.7,24.4,11.5v-9.8h20.6v78.7h-20.6V244.4z M137.1,236.4c11.1,0,21.6-7.8,21.6-21.2c0-13.7-10.8-21.2-21.6-21.2
			c-11.3,0-21.8,8.4-21.8,21.2C115.3,227.8,125.8,236.4,137.1,236.4L137.1,236.4z"/>
		<path class="st0" d="M254.2,175.8h20.6v78.7h-20.6v-11.1c-4.4,8.4-13.8,12.8-21.8,12.8c-18.6,0-31-11.6-31-33.9v-46.5h20.7v42.8
			c0,12.8,7.8,17.5,15,17.5c8.6,0,17-4.7,17-18.4L254.2,175.8z"/>
		<path class="st0" d="M294.9,197.6c0-12.6,13.3-23.4,29-23.4c14.8,0,30,6.7,30.7,24.8H335c-0.3-5.9-6.1-8.1-10.6-8.1
			c-5.1,0-10,1.9-10,7.8c0,3.2,3.7,5.4,8.3,6.6l13.1,3.2c18.2,4.7,20.6,17.4,20.6,23.6c0,16-15.9,24.3-32.2,24.3
			c-15.5,0-31.4-9.4-31.7-26.5h19.2c0.5,5.6,6.9,10.3,14.5,9.9c5.7-0.2,10.3-3.4,10.3-7.9c0.2-4-2.9-6.1-8.6-7.4l-10.8-2.7
			C296.7,216.1,294.9,206.8,294.9,197.6z"/>
	</g>
</g>
</svg>
